<?xml version="1.0" encoding="UTF-8"?>
<svg xmlns="http://www.w3.org/2000/svg" viewBox="0 0 160 160" role="img" aria-label="AI Shopping Assistant">
  <!-- Bubble + tail: fill follows the widget colour via CSS var -->
  <path class="trcl-launcher-bubble" d="M140.0 68.5 L139.9 79.9 L139.6 85.9 L139.0 90.7 L138.2 94.8 L137.2 98.4 L135.9 101.7 L134.5 104.6 L132.8 107.3 L130.8 109.7 L128.6 111.9 L126.2 113.8 L123.5 115.6 L120.5 117.1 L117.2 118.4 L113.5 119.5 L109.4 120.4 L104.8 121.1 L99.5 121.6 L92.8 121.9 L80.0 122.0 L67.2 121.9 L45.0 144.0 L42.8 118.4 L39.5 117.1 L36.5 115.6 L33.8 113.8 L31.4 111.9 L29.2 109.7 L27.2 107.3 L25.5 104.6 L24.1 101.7 L22.8 98.4 L21.8 94.8 L21.0 90.7 L20.4 85.9 L20.1 79.9 L20.0 68.5 L20.1 57.1 L20.4 51.1 L21.0 46.3 L21.8 42.2 L22.8 38.6 L24.1 35.3 L25.5 32.4 L27.2 29.7 L29.2 27.3 L31.4 25.1 L33.8 23.2 L36.5 21.4 L39.5 19.9 L42.8 18.6 L46.5 17.5 L50.6 16.6 L55.2 15.9 L60.5 15.4 L67.2 15.1 L80.0 15.0 L92.8 15.1 L99.5 15.4 L104.8 15.9 L109.4 16.6 L113.5 17.5 L117.2 18.6 L120.5 19.9 L123.5 21.4 L126.2 23.2 L128.6 25.1 L130.8 27.3 L132.8 29.7 L134.5 32.4 L135.9 35.3 L137.2 38.6 L138.2 42.2 L139.0 46.3 L139.6 51.1 L139.9 57.1 Z"/>
  <!-- Graph edges -->
  <g stroke="#FFFFFF" stroke-opacity="0.51" stroke-linecap="round" stroke-width="2">
    <line x1="52" y1="48" x2="86" y2="37"/>
    <line x1="52" y1="48" x2="90" y2="72"/>
    <line x1="86" y1="37" x2="90" y2="72"/>
    <line x1="90" y1="72" x2="109" y2="84"/>
    <line x1="52" y1="48" x2="64" y2="92"/>
    <line x1="90" y1="72" x2="64" y2="92"/>
  </g>
  <!-- Graph nodes -->
  <circle cx="52" cy="48" r="14" fill="#FFFFFF"/>
  <circle cx="86" cy="37" r="9" fill="#FFFFFF"/>
  <circle cx="90" cy="72" r="12" fill="#FFFFFF"/>
  <circle cx="64" cy="92" r="9" fill="#FFFFFF"/>
  <circle cx="109" cy="84" r="7" fill="#F5A623"/>
</svg>
